<svg xmlns="http://www.w3.org/2000/svg" width="22.444" height="43.004" viewBox="0 0 22.444 43.004">
  <g id="right-arrow" transform="translate(22.444 43.004) rotate(180)">
    <path  class="SVG RightArrow" data-name="Path 1389" d="M1.609.262A.935.935,0,0,0,.287,1.584l19.9,19.9-19.9,19.9a.935.935,0,1,0,1.3,1.345l.023-.023L22.169,22.145a.935.935,0,0,0,0-1.322Z" transform="translate(0 0.012)" fill="#bababa"/>
    <path class="SVG RightArrow" data-name="Path 1390" d="M.936,42.994a.935.935,0,0,1-.662-1.6l19.9-19.9L.275,1.6A.936.936,0,1,1,1.6.274L22.16,20.836a.935.935,0,0,1,0,1.322L1.6,42.719A.934.934,0,0,1,.936,42.994Z" transform="translate(0.011 0)" fill="#bababa"/>
  </g>
</svg>
